<?xml version="1.0" encoding="utf-8"?>
<!-- Svg Vector Icons : http://www.onlinewebfonts.com/icon -->
<!DOCTYPE svg PUBLIC "-//W3C//DTD SVG 1.1//EN" "http://www.w3.org/Graphics/SVG/1.1/DTD/svg11.dtd">
<svg version="1.1" xmlns="http://www.w3.org/2000/svg" xmlns:xlink="http://www.w3.org/1999/xlink" x="0px" y="0px" viewBox="0 0 1000 1000" enable-background="new 0 0 1000 1000" xml:space="preserve">
<metadata> Svg Vector Icons : http://www.onlinewebfonts.com/icon </metadata>
<g><g transform="translate(0.000000,501.000000) scale(0.100000,-0.100000)"><path d="M5098.8,4789.2c91.2-45.6,248.4-152.1,347.3-238.3l185-154.6H5844c116.6,0,271.2-12.7,344.7-25.3c73.5-15.2,139.4-20.3,147-15.2c22.8,22.8-71,286.4-119.1,329.5c-81.1,73.5-839,195.2-1193.9,190.1C4936.6,4875.4,4936.6,4872.9,5098.8,4789.2z"/><path d="M3879.6,4703.1c-238.3-76-466.4-185.1-666.6-314.3l-129.3-81.1l418.2-15.2c413.2-15.2,821.3-83.6,1115.3-187.6c98.9-35.5,103.9-32.9,233.2,50.7c73.5,48.2,190.1,106.5,261.1,129.3c68.4,22.8,136.9,48.1,147,53.2c32.9,20.3-197.7,177.4-400.5,273.8c-207.9,101.4-453.7,164.8-633.7,162.2C4155.9,4774.1,3998.7,4743.6,3879.6,4703.1z"/><path d="M6690.7,4436.9c-2.5-63.4-5.1-134.4-5.1-157.2c-2.5-25.3,55.8-63.4,162.2-109c91.2-38,240.8-116.6,334.6-177.4l172.4-109l152.1,53.3c83.6,30.4,182.5,53.2,223.1,53.2c58.3,0,45.6,15.2-109,116.6c-192.6,126.7-742.7,403-854.2,428.4C6698.3,4553.5,6695.7,4551,6690.7,4436.9z"/><path d="M5694.5,3980.7c-301.7-78.6-499.4-228.1-595.7-451.2c-78.6-185-63.4-453.7,40.5-666.7c93.8-197.7,398-507,618.5-628.6c892.2-491.8,1903.6-149.6,1814.9,613.4c-53.2,453.7-509.5,910-1092.5,1092.5C6259.7,4008.5,5874.5,4028.8,5694.5,3980.7z"/><path d="M2850.5,3960.4c-152.1-22.8-159.7-27.9-248.4-162.2c-126.7-190.1-205.3-372.6-266.2-605.8c-27.9-109-48.2-200.2-45.6-205.3c5.1-2.5,103.9,27.9,223.1,65.9c468.9,159.7,1044.3,271.2,1627.3,316.8c192.6,17.7,192.6,17.7,207.8,96.3c7.6,45.6,50.7,154.6,91.3,243.3c43.1,88.7,73.5,164.8,71,167.3c-5.1,2.5-109,25.4-235.7,50.7C4006.3,3980.7,3098.9,4000.9,2850.5,3960.4z"/><path d="M1922.7,3681.5c-443.6-263.6-798.5-636.2-1125.4-1178.7c-139.4-233.2-268.7-560.2-299.1-755.4L483,1646.1l68.4,88.7c182.5,233.2,595.7,608.3,879.6,795.9c233.2,157.2,296.6,210.4,296.6,256c0,172.4,177.4,636.2,329.5,861.8c86.2,129.3,106.5,164.8,93.8,164.8C2145.8,3813.4,2044.4,3755.1,1922.7,3681.5z"/><path d="M7704.6,3663.8l-68.4-15.2l126.7-152.1c68.4-83.6,159.7-210.4,202.8-283.9c71-124.2,81.1-131.8,283.9-197.7c289-91.2,545-220.5,740.2-367.5c190.1-144.5,187.6-131.8-48.2,215.4c-83.6,126.7-273.8,349.8-420.8,496.8c-245.9,248.4-276.3,273.8-400.5,299.1C7978.3,3689.2,7816.1,3691.7,7704.6,3663.8z"/><path d="M3877,3040.3c-410.6-83.6-813.7-200.2-1186.3-344.7c-443.6-172.4-423.3-152.1-382.8-392.9c17.7-109,68.4-294,109-415.7c73.5-207.9,212.9-507,235.7-507c5.1,0,86.2,58.3,182.5,129.3c410.6,311.8,937.9,638.8,1406.8,874.5c172.4,86.2,273.8,152.1,263.6,169.8c-93.8,215.5-141.9,352.3-157.2,443.6c-15.2,98.9-20.3,106.5-96.3,103.9C4209.1,3101.1,4039.3,3073.2,3877,3040.3z"/><path d="M8155.8,2502.9l5.1-271.2l197.7-159.7c380.2-309.2,676.8-628.6,942.9-1016.4c83.6-121.7,131.8-169.8,139.4-147c58.3,152.1,40.6,684.4-32.9,955.6c-30.4,111.5-268.7,357.4-519.6,537.4c-162.2,114.1-651.4,372.6-709.7,372.6C8163.4,2774.1,8155.8,2670.2,8155.8,2502.9z"/><path d="M4411.9,2074.5c-443.6-299.1-981-722.4-1320.6-1039.3l-121.7-114.1l48.2-71c96.3-134.4,603.3-600.8,826.3-757.9l225.6-159.7L4201.5,143c306.7,489.2,610.9,950.5,831.4,1269.9l235.7,342.2l-172.4,131.8c-96.3,71-225.6,187.6-286.4,256l-111.5,124.2L4411.9,2074.5z"/><path d="M1436.1,2021.3c-283.9-207.8-722.4-646.4-882.1-884.6l-121.7-180l40.6-250.9c25.3-136.9,65.9-324.5,93.8-415.7C632.5,74.6,830.2-391.8,886-465.4l45.6-58.3l154.6,235.7c207.8,319.4,448.6,613.4,770.6,945.5L2128,936.4l-91.2,177.4c-48.2,98.9-119.1,263.6-157.2,367.5c-60.8,162.2-88.7,276.3-167.3,654c-5.1,30.4-20.3,55.8-30.4,55.8C1671.8,2191.1,1562.8,2115.1,1436.1,2021.3z"/><path d="M7988.5,1899.6c-27.9-48.1-111.5-139.4-182.5-202.8l-126.7-114.1l101.4-172.4c258.6-436,496.8-965.7,664.1-1470.2c53.2-157.2,101.4-291.5,109-301.7c22.8-20.3,271.2,174.9,398,311.8c55.8,60.8,154.6,190.1,215.4,288.9l116.6,174.9l-68.4,134.3c-96.3,192.6-306.7,507-491.8,742.7c-172.4,215.5-628.6,697.1-661.6,697.1C8051.8,1988.3,8018.9,1947.8,7988.5,1899.6z"/><path d="M5070.9,617c-370.1-742.7-474-973.4-448.6-988.6c185-119.1,1259.8-453.7,1348.5-420.8c48.2,20.3,230.7,1186.3,306.7,1974.6l15.2,169.8l-96.3,25.3c-53.2,12.7-129.3,32.9-172.4,43.1c-40.6,10.1-159.7,50.7-261.1,88.7c-101.4,40.5-190.1,73.5-195.2,73.5C5560.1,1582.8,5337.1,1146.8,5070.9,617z"/><path d="M7228,1390.1c-63.4-22.8-223-45.6-357.4-53.2l-245.9-15.2l-15.2-915c-7.6-501.9-22.8-998.7-30.4-1102.6l-15.2-187.6l324.4,15.2c496.8,25.4,1158.4,169.8,1193.9,261.1c43.1,111.5-278.8,1176.1-519.6,1733.8C7423.2,1448.4,7418.1,1450.9,7228,1390.1z"/><path d="M9762.8,895.8c-2.5-103.9-17.7-273.8-35.5-377.7c-32.9-172.4-30.4-202.8,10.2-329.5c55.8-167.3,124.2-496.8,129.3-613.4c2.5-45.6,15.2,25.4,25.4,157.2c22.8,271.2-5,760.4-65.9,1102.6c-22.8,124.2-45.6,230.7-50.7,238.3C9767.9,1078.3,9762.8,999.8,9762.8,895.8z"/><path d="M2358.7,297.6C1937.9-146,1299.2-1061,1347.3-1154.8c10.1-20.3,136.9-162.2,278.8-311.8c289-301.7,638.8-605.8,948-816.2l202.8-139.4l256,501.9c139.4,273.8,352.3,669.2,468.9,877.1l210.4,380.2l-60.8,38c-334.6,220.5-818.7,638.8-1024,887.2c-68.4,83.6-131.8,152.1-139.4,152.1C2480.4,416.7,2422.1,363.5,2358.7,297.6z"/><path d="M128.1,158.2c-93.8-542.4,53.2-1442.3,349.8-2124.2l50.7-114.1l15.2,304.2c7.6,218,30.4,365,76,517.1l63.4,215.5L559-797.4C412-505.9,272.6-100.3,227,158.2c-15.2,98.9-38,182.5-48.2,182.5S145.9,257.1,128.1,158.2z"/><path d="M9410.5-310.7c-109-180-385.3-471.5-570.3-603.3l-141.9-101.4l20.3-202.8c35.5-385.3,17.8-1122.9-30.4-1351c-25.3-116.6-40.5-218-32.9-223.1c7.6-7.6,101.4,58.3,210.4,147c349.8,283.9,666.7,714.8,737.6,1003.8c50.7,212.9,68.4,669.2,35.5,904.9c-32.9,240.8-106.4,570.3-126.7,570.3C9504.3-166.3,9458.6-232.1,9410.5-310.7z"/><path d="M4219.2-1099c-27.9-65.9-215.5-466.4-413.2-889.7c-195.2-423.3-352.3-780.7-349.8-793.4c5.1-12.7,111.5-68.4,235.7-126.7c514.6-230.7,1564-524.7,1609.6-451.2c50.7,83.6,296.6,872,418.2,1346l134.3,522.2l-220.5,45.6c-281.3,58.3-899.8,258.5-1153.3,377.7c-109,50.7-200.2,91.3-202.8,91.3C4275-977.4,4249.7-1033.1,4219.2-1099z"/><path d="M7973.3-1362.7c-377.7-124.2-839-197.7-1267.4-197.7h-233.2l-43.1-245.9c-93.8-537.4-253.5-1196.4-377.7-1548.7l-38-106.5h347.3c517.1,0,968.3,73.5,1442.3,233.2c268.7,91.2,253.5,65.9,339.6,491.8c55.8,278.8,96.3,1229.4,58.3,1366.2l-22.8,78.6L7973.3-1362.7z"/><path d="M1045.7-1796.1c-83.7-261.1-111.5-461.3-98.9-714.8c15.2-289,35.5-321.9,390.4-679.3c248.4-253.5,519.6-481.6,773.1-654c126.7-83.7,149.6-93.8,149.6-53.2c0,81.1,101.4,433.5,200.2,707.2l98.9,263.6l-182.5,124.2c-398,268.7-795.9,615.9-1107.7,968.3l-172.4,195.2L1045.7-1796.1z"/><path d="M8748.9-3121.8c-91.3-76-197.7-159.7-235.7-182.5c-40.6-22.8-114.1-111.5-162.2-195.2c-50.7-83.6-109-172.4-129.3-197.7c-20.3-22.8-32.9-48.2-25.3-55.8c15.2-15.2,532.3,514.6,651.4,666.6c45.6,58.3,78.6,106.5,73.5,106.5C8918.7-2982.4,8840.1-3045.8,8748.9-3121.8z"/><path d="M3091.3-3606c-215.5-534.8-250.9-648.9-207.8-681.8c60.8-48.2,666.6-281.4,910-352.3c126.7-35.5,332.1-88.7,456.3-114.1l228.1-48.2l83.6,81.1c103.9,98.9,327,428.4,433.4,643.8c43.1,86.2,78.6,162.2,78.6,169.8c0,5-48.2,17.7-106.5,27.9c-377.7,60.8-1021.5,258.6-1447.3,446.1c-129.3,55.7-251,109-271.2,114.1C3220.5-3309.4,3180-3382.9,3091.3-3606z"/><path d="M7534.7-3768.2c-395.4-134.4-1082.3-235.8-1543.7-223.1l-187.6,5.1l-98.9-182.5c-136.9-250.9-238.3-395.4-390.3-552.6L5185-4855.6h283.9c517.1,0,1168.5,152.1,1584.2,370.1c271.2,144.5,585.5,461.3,730,740.2C7821.2-3674.4,7806-3674.4,7534.7-3768.2z"/></g></g>
</svg>